<svg width="32" height="32" viewBox="0 0 40 40" fill="none" xmlns="http://www.w3.org/2000/svg">
  <defs>
    <linearGradient id="dashy-bg" x1="4" y1="4" x2="36" y2="36" gradientUnits="userSpaceOnUse">
      <stop stop-color="#34D186"/>
      <stop offset="1" stop-color="#2AAF6A"/>
    </linearGradient>
  </defs>
  <rect width="40" height="40" rx="10" fill="url(#dashy-bg)"/>
  <line x1="5" y1="13" x2="11" y2="13" stroke="white" stroke-width="2" stroke-linecap="round" opacity="0.45"/>
  <line x1="4" y1="19" x2="12" y2="19" stroke="white" stroke-width="2" stroke-linecap="round" opacity="0.65"/>
  <line x1="3" y1="25" x2="13" y2="25" stroke="white" stroke-width="2.5" stroke-linecap="round" opacity="0.85"/>
  <path d="M15 9.5V30.5H19.5C27.5 30.5 33 25.5 33 20C33 14.5 27.5 9.5 19.5 9.5H15Z" fill="white"/>
  <rect x="21" y="24" width="2.5" height="4" rx="0.5" fill="#2AAF6A"/>
  <rect x="24.5" y="20" width="2.5" height="8" rx="0.5" fill="#2AAF6A"/>
  <rect x="28" y="15" width="2.5" height="13" rx="0.5" fill="#2AAF6A"/>
  <path d="M20.5 13.5H29.5M27 11L29.5 13.5L27 16" stroke="white" stroke-width="1.5" stroke-linecap="round" stroke-linejoin="round"/>
</svg>
